# xmcd
#
# Track frame offsets:
#	182
#	21007
#	35020
#	57500
#	77280
#	100765
#	119132
#	143790
#	163460
#	184070
#	207745
#	230465
#	251385
#	269070
#
# Disc length: 3876 seconds
#
# Revision: 0
# Processed by: cddbd v1.5.2PL0 Copyright (c) Steve Scherf et al.
# Submitted via: audiograbber 1.83.01
#
DISCID=cf0f220e
DTITLE=Richard Elliot - After Dark
DYEAR=1994
DGENRE=Jazz
TTITLE0=Street Beat
TTITLE1=Song for Her
TTITLE2=As I Sleep
TTITLE3=After Dark
TTITLE4=El Anio
TTITLE5=Tonight
TTITLE6=On the Run
TTITLE7=If Tomorrow Never Comes
TTITLE8=Hold Me Tight
TTITLE9=Bridge Over Troubled Water
TTITLE10=The Boys From the Bay
TTITLE11=Candlelight
TTITLE12=So Special
TTITLE13=Slow It Down
EXTD=
EXTT0=
EXTT1=
EXTT2=
EXTT3=
EXTT4=
EXTT5=
EXTT6=
EXTT7=
EXTT8=
EXTT9=
EXTT10=
EXTT11=
EXTT12=
EXTT13=
PLAYORDER=
